<?xml version="1.0" standalone="no"?>
<!DOCTYPE svg PUBLIC "-//W3C//DTD SVG 1.1//EN" "http://www.w3.org/Graphics/SVG/1.1/DTD/svg11.dtd" >
<svg xmlns="http://www.w3.org/2000/svg" xmlns:xlink="http://www.w3.org/1999/xlink" version="1.1">
<metadata></metadata>
<defs>
<font id="plainthin" horiz-adv-x="1146" >
<font-face units-per-em="2048" ascent="1645" descent="-403" />
<missing-glyph horiz-adv-x="536" />
<glyph unicode="&#xfb01;" horiz-adv-x="1007" d="M55 967v108h142v80q0 72 11.5 126.5t40 99.5t82 68.5t130.5 23.5q25 0 69 -7v-112q-28 4 -49 4q-137 0 -137 -144v-139h186v-108h-186v-967h-147v967h-142zM694 1237v227h156v-227h-156zM698 0v1075h148v-1075h-148z" />
<glyph unicode="&#xfb02;" horiz-adv-x="1013" d="M55 967v108h142v80q0 72 11.5 126.5t40 99.5t82 68.5t130.5 23.5q25 0 69 -7v-112q-28 4 -49 4q-137 0 -137 -144v-139h186v-108h-186v-967h-147v967h-142zM696 0v1464h148v-1464h-148z" />
<glyph horiz-adv-x="0" />
<glyph horiz-adv-x="682" />
<glyph horiz-adv-x="0" />
<glyph horiz-adv-x="0" />
<glyph unicode="&#xd;" horiz-adv-x="0" />
<glyph unicode=" "  horiz-adv-x="536" />
<glyph unicode="&#x09;" horiz-adv-x="536" />
<glyph unicode="&#xa0;" horiz-adv-x="536" />
<glyph unicode="!" horiz-adv-x="540" d="M193 0v213h155v-213h-155zM197 1243v221h147v-221q0 -146 -4.5 -289.5t-13.5 -328t-11 -244.5h-90q-2 48 -11 241.5t-13 334t-4 286.5z" />
<glyph unicode="&#x22;" horiz-adv-x="702" d="M137 1464h152q-2 -136 -27 -540h-98q-25 404 -27 540zM414 1464h151q-3 -159 -26 -540h-99q-23 381 -26 540z" />
<glyph unicode="#" d="M35 475l16 82h217l78 375h-221l16 82h221l95 450h86l-94 -450h372l94 450h86l-94 -450h205l-16 -82h-205l-76 -375h207l-16 -82h-207l-99 -475h-86l97 475h-371l-98 -475h-86l96 475h-217zM356 557h371l78 375h-373z" />
<glyph unicode="$" d="M51 422h150q23 -155 121.5 -236.5t263.5 -81.5q161 0 254.5 75.5t93.5 201.5q0 29 -6.5 55.5t-15.5 47.5t-28 41t-33.5 34t-43.5 30t-47 25t-55 23.5t-55.5 21.5t-59.5 21l-88 29q-191 60 -294.5 155.5t-103.5 245.5q0 151 106.5 249.5t295.5 115.5v221h139v-219 q184 -17 288.5 -120t125.5 -278h-139q-22 138 -111 210.5t-238 72.5q-147 0 -231 -63.5t-84 -172.5q0 -47 15 -85t39 -65t67 -52t85.5 -43t108.5 -41l111 -41q76 -26 130 -49.5t110 -58t90 -73.5t56 -94t22 -121q0 -177 -121.5 -287.5t-323.5 -125.5v-232h-139v232 q-195 17 -312 127t-143 305z" />
<glyph unicode="%" horiz-adv-x="1787" d="M74 1081q0 190 83.5 297t243.5 107q161 0 245.5 -108t84.5 -298q0 -194 -83 -299.5t-245 -105.5q-161 0 -245 107t-84 300zM186 1077q0 -145 51.5 -231t163.5 -86q114 0 165.5 85t51.5 232q0 75 -10.5 131.5t-34 101t-67 68t-105.5 23.5q-118 0 -166.5 -85.5 t-48.5 -238.5zM573 0l560 1464h98l-563 -1464h-95zM1057 377q0 190 83.5 296.5t243.5 106.5q161 0 245.5 -107.5t84.5 -297.5q0 -194 -83 -300t-245 -106q-161 0 -245 107.5t-84 300.5zM1169 373q0 -146 51.5 -232t163.5 -86q114 0 166 85.5t52 232.5q0 155 -49 239t-169 84 q-118 0 -166.5 -85t-48.5 -238z" />
<glyph unicode="&#x26;" horiz-adv-x="1363" d="M119 387q0 140 93.5 247t264.5 197q-176 188 -176 351q0 133 95.5 221t254.5 88q151 0 243.5 -79.5t92.5 -211.5q0 -230 -317 -391q69 -84 334 -385q89 137 161 356l135 -12q-82 -238 -213 -438l216 -238l-103 -90q-16 18 -190 217q-98 -116 -205.5 -177.5t-249.5 -61.5 q-201 0 -318.5 113t-117.5 294zM270 389q0 -130 88.5 -211.5t221.5 -81.5q106 0 187.5 52t164.5 155q-141 153 -383 445q-279 -147 -279 -359zM440 1188q0 -43 13.5 -85t41 -81.5t50 -66.5t57.5 -64l66 33q182 95 182 256q0 91 -57.5 146.5t-149.5 55.5q-91 0 -147 -53 t-56 -141z" />
<glyph unicode="'" horiz-adv-x="425" d="M137 1464h152q-2 -136 -27 -540h-98q-25 404 -27 540z" />
<glyph unicode="(" horiz-adv-x="600" d="M90 610q0 297 120.5 555.5t317.5 384.5v-143q-301 -322 -301 -799q0 -456 301 -778v-149q-196 125 -317 381t-121 548z" />
<glyph unicode=")" horiz-adv-x="600" d="M72 -170q301 322 301 778q0 477 -301 799v143q197 -126 317.5 -384.5t120.5 -555.5q0 -292 -121 -548t-317 -381v149z" />
<glyph unicode="*" horiz-adv-x="905" d="M100 1169l35 107l281 -115l-21 303h113l-23 -303l285 115l33 -105l-295 -75l197 -234l-91 -65l-163 256l-160 -256l-90 65l194 234z" />
<glyph unicode="+" d="M121 600v117h391v409h121v-409h393v-117h-393v-410h-121v410h-391z" />
<glyph unicode="," horiz-adv-x="475" d="M51 -248l133 475h154l-162 -475h-125z" />
<glyph unicode="-" horiz-adv-x="835" d="M139 539v125h557v-125h-557z" />
<glyph unicode="." horiz-adv-x="434" d="M139 0v227h156v-227h-156z" />
<glyph unicode="/" horiz-adv-x="851" d="M61 -215l592 1679h138l-592 -1679h-138z" />
<glyph unicode="0" horiz-adv-x="1245" d="M123 729q0 126 12 229.5t45.5 206t87.5 172.5t144.5 113t210.5 43t210.5 -43t145 -113t88 -172t45.5 -206t12 -230q0 -136 -13.5 -245t-48 -207.5t-90 -164.5t-144 -104.5t-205.5 -38.5t-205.5 38.5t-144 104.5t-90 164.5t-47.5 207.5t-13 245zM279 731 q0 -147 16.5 -258.5t54 -201t106.5 -136.5t167 -47q80 0 141 32t99.5 87t62.5 138t33.5 176t9.5 210q0 110 -8.5 199t-32 174t-61.5 142t-100 91.5t-144 34.5t-144 -34.5t-99.5 -91.5t-60.5 -142.5t-31.5 -174t-8.5 -198.5z" />
<glyph unicode="1" horiz-adv-x="788" d="M63 1124v109h29q186 0 270 53.5t103 177.5h110v-1464h-147v1124h-365z" />
<glyph unicode="2" horiz-adv-x="1167" d="M109 1008q0 221 128 353t351 132q215 0 331.5 -117.5t116.5 -310.5q0 -64 -14.5 -127t-36 -114.5t-59.5 -107t-72.5 -97t-87.5 -93t-91 -85t-97 -83.5q-131 -111 -283 -229h768v-129h-950v121q248 213 428 373q185 164 262.5 299.5t77.5 267.5q0 139 -79.5 225t-219.5 86 q-155 0 -236 -95.5t-86 -268.5h-151z" />
<glyph unicode="3" horiz-adv-x="1169" d="M94 422h152q15 -165 100 -249.5t236 -84.5q150 0 238.5 93.5t88.5 236.5q0 162 -103 236.5t-274 74.5h-53v121h17q174 0 261 62t87 206q0 120 -76 186t-186 66q-120 0 -198 -68t-85 -200h-152q5 178 123.5 284.5t315.5 106.5q191 0 302 -98t111 -256q0 -252 -251 -336 q146 -29 231.5 -124t85.5 -257q0 -203 -130.5 -328t-354.5 -125t-350 116.5t-136 336.5z" />
<glyph unicode="4" horiz-adv-x="1191" d="M57 344v105l475 681q179 256 230 334h147v-999h207v-121h-207v-344h-145v344h-707zM211 465h553v260q0 279 8 559h-4q-13 -22 -111 -170.5t-145 -216.5l-96 -141z" />
<glyph unicode="5" horiz-adv-x="1142" d="M84 399h154q6 -62 28 -116.5t60 -99t98.5 -70t136.5 -25.5q157 0 246.5 103t89.5 268q0 153 -89 252.5t-239 99.5q-191 0 -286 -143l-142 22l86 774h748v-129h-635l-57 -524q129 125 319 125q202 0 324.5 -128t122.5 -345q0 -222 -130.5 -358t-353.5 -136 q-207 0 -330.5 106.5t-150.5 323.5z" />
<glyph unicode="6" horiz-adv-x="1216" d="M121 698q0 283 60.5 461t172.5 256t283 78q102 0 181 -30t131.5 -86t84.5 -127.5t47 -162.5h-151q-6 50 -27 98.5t-56.5 92.5t-92 71t-125.5 27q-183 0 -267.5 -157t-93.5 -492q47 89 146.5 151t242.5 62q199 0 326 -131.5t127 -349.5q0 -217 -136 -352.5t-351 -135.5 q-249 0 -375.5 173.5t-126.5 553.5zM295 463q0 -165 87 -268t243 -103q152 0 242.5 98.5t90.5 258.5q0 166 -87.5 265t-245.5 99q-156 0 -243 -93t-87 -257z" />
<glyph unicode="7" horiz-adv-x="993" d="M63 1335v129h902v-116l-50 -109q-193 -419 -309.5 -686.5t-222.5 -552.5h-168q44 111 92.5 221t127.5 281.5t100 216.5q191 421 292 616v2q-39 -2 -112 -2h-652z" />
<glyph unicode="8" horiz-adv-x="1204" d="M106 397q0 77 22.5 141.5t63.5 111t91.5 78.5t111.5 54q-104 39 -167.5 127t-63.5 217q0 159 118 263t320 104t320 -104t118 -263q0 -129 -63.5 -217t-167.5 -127q128 -45 208.5 -141.5t80.5 -243.5q0 -197 -128 -312.5t-368 -115.5t-368 115.5t-128 312.5zM264 403 q0 -143 86.5 -229t251.5 -86q160 0 247 86.5t87 228.5q0 146 -88.5 232t-245.5 86q-161 0 -249.5 -85.5t-88.5 -232.5zM317 1106q0 -118 77.5 -193t207.5 -75t207.5 75t77.5 193q0 115 -77.5 190.5t-207.5 75.5q-132 0 -208.5 -74.5t-76.5 -191.5z" />
<glyph unicode="9" horiz-adv-x="1214" d="M104 1006q0 217 136.5 352t351.5 135q250 0 376 -174t126 -553q0 -218 -32.5 -372t-99 -246.5t-159.5 -134.5t-221 -42q-102 0 -182 30t-133 86t-86 128t-48 162h152q6 -50 27 -98.5t56.5 -92.5t92 -71t125.5 -27q186 0 270.5 155.5t87.5 491.5q-49 -87 -148 -147 t-241 -60q-196 0 -323.5 130.5t-127.5 347.5zM256 1016q0 -166 87.5 -263.5t246.5 -97.5t244.5 93t85.5 260q0 162 -87.5 264t-242.5 102q-152 0 -243 -99t-91 -259z" />
<glyph unicode=":" horiz-adv-x="434" d="M139 0v227h156v-227h-156zM139 776v228h156v-228h-156z" />
<glyph unicode=";" horiz-adv-x="524" d="M76 -248l133 475h153l-161 -475h-125zM213 776v228h156v-228h-156z" />
<glyph unicode="&#x3c;" d="M141 604v117q51 26 811 426v-131q-86 -41 -239 -117.5t-303 -152.5t-154 -78v-6q16 -8 157 -81t297.5 -152t241.5 -120v-131q-760 400 -811 426z" />
<glyph unicode="=" d="M121 418v121h905v-121h-905zM121 788v121h905v-121h-905z" />
<glyph unicode="&#x3e;" d="M195 178v131q85 41 241.5 120t297.5 152t157 81v6q-4 2 -154 78t-303 152.5t-239 117.5v131q761 -400 811 -426v-117q-50 -26 -811 -426z" />
<glyph unicode="?" horiz-adv-x="1024" d="M74 1047q0 207 119 326.5t325 119.5q200 0 316 -103t116 -266q0 -63 -18.5 -120.5t-53 -107t-67 -85t-78.5 -76.5q-50 -45 -75 -71t-49 -64t-33.5 -81.5t-10.5 -106.5h-133q3 135 38 212.5t130 161.5q45 41 69 66t57.5 69t49 93t15.5 106q0 113 -72 178.5t-207 65.5 q-139 0 -212.5 -83t-76.5 -234h-149zM422 0v213h156v-213h-156z" />
<glyph unicode="@" horiz-adv-x="1701" d="M100 721q0 160 59 303t162 247t252.5 165t321.5 61q205 0 369 -81t257 -226.5t93 -327.5q0 -243 -114 -394t-286 -151q-135 0 -172 105q-90 -107 -254 -107q-145 0 -230 88t-85 248q0 68 17.5 134t53 124t83 102.5t112.5 70.5t138 26q183 0 264 -141l22 125h119 l-104 -590q-7 -47 16.5 -71.5t73.5 -24.5q64 0 121.5 59.5t92 159t34.5 209.5q0 257 -168 414t-453 157q-150 0 -278.5 -52.5t-217 -144t-138.5 -217.5t-50 -270q0 -151 54 -279.5t147.5 -217t223 -138t277.5 -49.5q163 0 273 45.5t221 132.5l80 -45q-234 -221 -584 -221 q-235 0 -417.5 96t-284 271.5t-101.5 404.5zM606 653q0 -118 55.5 -184t165.5 -66q73 0 130 32t90 85t50 115.5t17 130.5q0 118 -56.5 181t-170.5 63q-90 0 -155.5 -54t-95.5 -133t-30 -170z" />
<glyph unicode="A" horiz-adv-x="1372" d="M2 0l600 1464h172l594 -1464h-160l-192 483h-678l-188 -483h-148zM385 602h584l-62 158q-23 61 -70 180.5t-84.5 217.5t-68.5 185h-4q-40 -102 -124 -313t-114 -289z" />
<glyph unicode="B" horiz-adv-x="1298" d="M190 0v1464h406q231 0 356 -57q185 -82 185 -301q0 -252 -232 -334q58 -15 106.5 -40t93 -65.5t70 -104t25.5 -144.5q0 -241 -188 -342q-143 -76 -404 -76h-418zM340 125h336q180 0 266 70q92 76 92 215q0 79 -28.5 134.5t-83.5 86.5t-125.5 45t-163.5 14h-293v-565z M340 811h278q183 0 269 61t86 207q0 163 -129 219q-89 41 -297 41h-207v-528z" />
<glyph unicode="C" horiz-adv-x="1564" d="M96 731q0 222 91.5 395.5t258.5 270t381 96.5q254 0 424.5 -121t241.5 -348h-154q-27 72 -69.5 132t-104 109.5t-148.5 77t-192 27.5q-262 0 -415.5 -175.5t-153.5 -461.5q0 -284 154 -461.5t417 -177.5q353 0 508 330h154q-78 -212 -251.5 -332.5t-420.5 -120.5 q-321 0 -521 210.5t-200 549.5z" />
<glyph unicode="D" horiz-adv-x="1460" d="M190 0v1464h361q145 0 245.5 -19.5t190.5 -60.5q182 -84 277.5 -250t95.5 -405q0 -181 -62.5 -329.5t-185.5 -245.5q-98 -76 -224.5 -115t-312.5 -39h-385zM342 125h197q187 0 317 43q169 57 253.5 193.5t84.5 369.5q0 384 -268 529q-143 79 -369 79h-215v-1214z" />
<glyph unicode="E" horiz-adv-x="1204" d="M190 0v1464h906v-129h-754v-520h705v-129h-705v-557h768v-129h-920z" />
<glyph unicode="F" horiz-adv-x="1185" d="M190 0v1464h893v-129h-741v-520h692v-129h-692v-686h-152z" />
<glyph unicode="G" horiz-adv-x="1617" d="M96 731q0 222 91.5 395.5t258 270t379.5 96.5q254 0 424.5 -121t241.5 -348h-154q-27 72 -69.5 132t-104 109.5t-148.5 77t-192 27.5q-262 0 -414.5 -175t-152.5 -460q0 -289 160 -465t409 -176q112 0 203 30.5t150 80.5t99 118t58 139.5t19 147.5h-584v129h721v-739 h-139v115l4 145q-19 -37 -48 -74t-77.5 -77t-107.5 -69.5t-142 -49t-176 -19.5q-151 0 -280 53t-223.5 149.5t-149 240t-56.5 317.5z" />
<glyph unicode="H" horiz-adv-x="1435" d="M190 0v1464h150v-651h756v651h149v-1464h-149v686h-756v-686h-150z" />
<glyph unicode="I" horiz-adv-x="530" d="M190 0v1464h150v-1464h-150z" />
<glyph unicode="J" horiz-adv-x="974" d="M61 354h146q2 -124 51 -194t164 -70q57 0 98 20t65.5 53t38.5 85.5t18.5 106t4.5 126.5v983h150v-1054q0 -99 -21.5 -177t-65.5 -138t-118 -92t-174 -32q-354 0 -357 383z" />
<glyph unicode="K" horiz-adv-x="1181" d="M190 0v1464h152v-676q134 144 359 377.5t286 298.5h195l-676 -678q115 -141 356 -410t332 -376h-197q-37 44 -151.5 175t-245 282.5t-258.5 302.5v-760h-152z" />
<glyph unicode="L" horiz-adv-x="1089" d="M190 0v1464h152v-1335h684v-129h-836z" />
<glyph unicode="M" horiz-adv-x="1738" d="M190 0v1464h267l280 -874q30 -95 73.5 -236.5t59.5 -191.5h2l146 442l293 860h237v-1464h-147v741q0 315 10 613h-2q-107 -344 -192 -596l-265 -758h-186l-311 965q-16 54 -43.5 141t-45.5 145.5t-28 102.5h-2q2 -119 2 -533v-821h-148z" />
<glyph unicode="N" horiz-adv-x="1501" d="M190 0v1464h252l496 -899q49 -90 126 -234t97 -181h4q0 35 -2 214t-2 257v843h150v-1464h-232l-491 887q-19 35 -65.5 119t-73.5 133.5t-59 111t-48 97.5h-4q0 -34 1 -290t1 -327v-731h-150z" />
<glyph unicode="O" horiz-adv-x="1658" d="M96 731q0 341 202 551.5t529 210.5q329 0 531.5 -210t202.5 -552q0 -344 -199.5 -552t-532.5 -208q-331 0 -532 208.5t-201 551.5zM256 733q0 -287 154.5 -463t416.5 -176q258 0 413 176t155 463q0 290 -153.5 463.5t-416.5 173.5q-262 0 -415.5 -174.5t-153.5 -462.5z " />
<glyph unicode="P" horiz-adv-x="1183" d="M190 0v1464h398q208 0 323 -59q195 -98 195 -358q0 -217 -150 -326q-129 -100 -381 -100h-233v-621h-152zM342 745h242q164 0 262 73.5t98 228.5q0 149 -92.5 220.5t-280.5 71.5h-229v-594z" />
<glyph unicode="Q" horiz-adv-x="1658" d="M96 731q0 341 202 551.5t529 210.5q329 0 531.5 -210t202.5 -552q0 -195 -67 -350t-191 -256l229 -227h-201l-153 147q-157 -74 -349 -74q-331 0 -532 208.5t-201 551.5zM256 733q0 -287 154.5 -463t416.5 -176q143 0 248 51l-311 306h209l225 -224q95 86 146 215.5 t51 290.5q0 290 -153.5 463.5t-416.5 173.5q-262 0 -415.5 -174.5t-153.5 -462.5z" />
<glyph unicode="R" horiz-adv-x="1224" d="M190 0v1464h394q127 0 218 -17t159 -65q167 -105 167 -329q0 -93 -30.5 -166.5t-84 -122t-118 -78t-141.5 -43.5q348 -564 395 -643h-178l-379 625h-250v-625h-152zM342 752h244q182 0 270 63q111 75 111 229q0 183 -144 252q-86 41 -237 41h-244v-585z" />
<glyph unicode="S" horiz-adv-x="1228" d="M78 416h151q25 -158 125.5 -241t268.5 -83q164 0 260 77t96 206q0 33 -7 62t-23 53.5t-32 43.5t-46 37.5t-51 30.5t-61 28t-63.5 24t-68.5 24l-90 31q-194 62 -300 159t-106 250q0 168 129.5 271.5t353.5 103.5q220 0 345 -106t147 -302h-143q-22 141 -112.5 215 t-242.5 74q-150 0 -235.5 -64t-85.5 -175q0 -48 15 -87t39.5 -66.5t68.5 -53.5t87.5 -44t110.5 -42l113 -41q77 -27 132 -50.5t112.5 -59.5t92 -75.5t56.5 -95.5t23 -123q0 -195 -143.5 -310.5t-375.5 -115.5t-371.5 113.5t-168.5 331.5z" />
<glyph unicode="T" horiz-adv-x="1107" d="M57 1335v129h994v-129h-422v-1335h-150v1335h-422z" />
<glyph unicode="U" horiz-adv-x="1398" d="M176 553v911h150v-880q0 -114 9.5 -186.5t39.5 -129.5q44 -81 128.5 -128.5t196.5 -47.5q113 0 197.5 47.5t126.5 128.5q30 57 39.5 129.5t9.5 186.5v880h150v-911q0 -133 -21 -226.5t-74 -168.5q-64 -88 -179.5 -137.5t-250.5 -49.5q-137 0 -250.5 49t-177.5 138 q-53 74 -73.5 167.5t-20.5 227.5z" />
<glyph unicode="V" horiz-adv-x="1345" d="M35 1464h166l315 -899q19 -56 75 -204t83 -234h4q28 82 89.5 251t72.5 200l315 886h164l-541 -1464h-213q-65 168 -174 469.5t-218.5 610t-137.5 384.5z" />
<glyph unicode="W" horiz-adv-x="1816" d="M68 1464h168l172 -901q10 -49 29 -140t30.5 -154.5t21.5 -141.5h7q13 77 26.5 138.5t36.5 158t33 137.5l209 903h227l197 -886q77 -350 96 -455h4q32 157 90 457l182 884h156l-321 -1464h-232l-172 801q-15 72 -55.5 256.5t-59.5 279.5h-4q-30 -142 -133 -596l-168 -741 h-231z" />
<glyph unicode="X" horiz-adv-x="1249" d="M8 0q141 194 524 748q-93 133 -271 393t-222 323h180q363 -548 402 -602q293 426 407 602h172q-481 -690 -489 -702l540 -762h-192l-438 649q-427 -631 -439 -649h-174z" />
<glyph unicode="Y" horiz-adv-x="1212" d="M18 1464h179q62 -115 208.5 -380.5t204.5 -372.5q82 151 222 396.5t198 356.5h170l-520 -901v-563h-152v563z" />
<glyph unicode="Z" horiz-adv-x="1175" d="M76 0v123q34 52 186 268l529 754q72 103 129 188h-836v131h1008v-123q-8 -13 -36 -56.5t-63 -97t-73 -108.5l-506 -717q-24 -36 -88.5 -125.5t-75.5 -105.5h850v-131h-1024z" />
<glyph unicode="[" horiz-adv-x="618" d="M197 -231v1695h348v-106h-211v-1483h211v-106h-348z" />
<glyph unicode="\" horiz-adv-x="851" d="M61 1464h138l592 -1679h-140z" />
<glyph unicode="]" horiz-adv-x="618" d="M74 -125h211v1483h-211v106h348v-1695h-348v106z" />
<glyph unicode="^" d="M90 590q331 629 424 809h117q83 -160 240 -456.5t186 -352.5h-131q-41 85 -119.5 240.5t-151.5 297t-80 156.5h-6q-7 -13 -80 -155.5t-151 -298t-119 -240.5h-129z" />
<glyph unicode="_" horiz-adv-x="1253" d="M139 -170h975v-121h-975v121z" />
<glyph unicode="`" horiz-adv-x="878" d="M184 1464h209l238 -243h-156z" />
<glyph unicode="a" horiz-adv-x="1118" d="M82 283q0 61 23 110t61.5 82.5t99 59.5t125 42t148.5 29q195 30 292 39q0 184 -66 263t-212 79q-141 0 -205 -62.5t-72 -174.5h-145q0 158 119 256t309 98q213 0 313.5 -109t100.5 -354q0 -65 -1 -113.5t-1 -50.5v-254q0 -141 20 -223h-137q-14 66 -14 157v23 q-112 -203 -389 -203q-164 0 -266.5 82t-102.5 224zM240 287q0 -97 68.5 -150t185.5 -53q163 0 251.5 100.5t88.5 292.5q0 40 2 60q-163 -18 -277 -39q-66 -12 -110 -23t-87 -28t-67.5 -38t-39.5 -51.5t-15 -70.5z" />
<glyph unicode="b" horiz-adv-x="1280" d="M162 0v1464h147v-305q0 -184 -2 -260q60 93 161 149t228 56q223 0 357.5 -153.5t134.5 -405.5q0 -259 -140 -415.5t-360 -156.5q-129 0 -227 53.5t-158 141.5v-168h-141zM299 539q0 -208 94 -327.5t269 -119.5t270.5 120t95.5 327q0 201 -97 323.5t-269 122.5 q-174 0 -268.5 -122t-94.5 -324z" />
<glyph unicode="c" horiz-adv-x="1218" d="M90 541q0 253 152 408t393 155q204 0 336 -104t168 -277h-148q-91 262 -362 262q-178 0 -282.5 -122.5t-104.5 -323.5q0 -204 105 -325.5t282 -121.5q77 0 137.5 18.5t102.5 54.5t70.5 78t51.5 99h146q-47 -164 -178 -266.5t-336 -102.5q-242 0 -387.5 155t-145.5 413z " />
<glyph unicode="d" horiz-adv-x="1280" d="M92 532q0 259 139.5 415.5t360.5 156.5q130 0 226.5 -53.5t156.5 -141.5q-4 86 -4 260v295h147v-1464h-143q0 125 2 176q-59 -92 -162 -147.5t-231 -55.5q-223 0 -357.5 153.5t-134.5 405.5zM252 539q0 -201 97.5 -324t268.5 -123q174 0 268.5 122.5t94.5 324.5 q0 208 -93.5 327t-269.5 119q-175 0 -270.5 -119.5t-95.5 -326.5z" />
<glyph unicode="e" horiz-adv-x="1212" d="M92 539q0 255 146 410t391 155q104 0 189.5 -31t143 -83t97 -122t57 -146.5t17.5 -158.5l-3 -45h-890q6 -205 107 -314.5t278 -109.5q237 0 344 213h143q-50 -148 -179 -241t-312 -93q-246 0 -387.5 154t-141.5 412zM246 633h731q-13 160 -99.5 258t-252.5 98 q-167 0 -263 -97.5t-116 -258.5z" />
<glyph unicode="f" horiz-adv-x="563" d="M55 967v108h142v80q0 72 11.5 126.5t40 99.5t82 68.5t130.5 23.5q25 0 69 -7v-112q-28 4 -49 4q-137 0 -137 -144v-139h186v-108h-186v-967h-147v967h-142z" />
<glyph unicode="g" horiz-adv-x="1277" d="M94 573q0 237 140.5 384t359.5 147q136 0 234 -55t151 -134v160h139v-864q0 -307 -133 -457q-127 -143 -377 -143q-194 0 -316.5 99.5t-156.5 254.5h156q12 -41 36.5 -80.5t63 -76.5t97.5 -59.5t128 -22.5q195 0 287 143q72 110 72 303q0 59 2 92h-4 q-46 -86 -145.5 -149.5t-237.5 -63.5q-226 0 -361 145t-135 377zM254 578q0 -178 96 -292t264 -114q158 0 263.5 112t105.5 300q0 177 -100 289t-267 112q-168 0 -265 -112.5t-97 -294.5z" />
<glyph unicode="h" horiz-adv-x="1189" d="M162 0v1464h147v-336q0 -72 -1 -136t-1 -77q112 189 350 189q187 0 285 -109.5t98 -322.5v-672h-147v623q0 185 -77 274.5t-208 89.5q-134 0 -216.5 -98t-82.5 -236v-653h-147z" />
<glyph unicode="i" horiz-adv-x="471" d="M158 1237v227h155v-227h-155zM162 0v1075h147v-1075h-147z" />
<glyph unicode="j" horiz-adv-x="471" d="M-39 -276q22 -5 49 -5q52 0 84 13t49 45q19 36 19 98v1200h147v-1159q0 -182 -69 -254q-63 -65 -199 -65q-40 0 -80 8v119zM158 1237v227h155v-227h-155z" />
<glyph unicode="k" horiz-adv-x="1011" d="M162 0v1464h145v-870q330 342 463 481h186q-227 -231 -497 -495q14 -15 225 -240.5t313 -339.5h-198l-492 553v-553h-145z" />
<glyph unicode="l" horiz-adv-x="487" d="M170 0v1464h147v-1464h-147z" />
<glyph unicode="m" horiz-adv-x="1888" d="M160 1075h147v-160q46 78 132 133.5t214 55.5q251 0 334 -207q129 207 379 207q185 0 279 -109t94 -323v-672h-148v623q0 187 -73 275.5t-203 88.5q-133 0 -212 -97t-79 -237v-653h-147v623q0 186 -73.5 275t-203.5 89q-133 0 -212 -97t-79 -237v-653h-147v911 q0 109 -2 164z" />
<glyph unicode="n" horiz-adv-x="1189" d="M160 1075h147v-160q112 189 350 189q187 0 285 -109.5t98 -322.5v-672h-147v623q0 185 -77 274.5t-208 89.5q-134 0 -216.5 -98t-82.5 -236v-653h-147v911q0 109 -2 164z" />
<glyph unicode="o" horiz-adv-x="1273" d="M90 537q0 253 149.5 410t397.5 157t397.5 -157t149.5 -410q0 -251 -149 -407.5t-402 -156.5q-251 0 -397 156t-146 408zM242 539q0 -205 103 -327t288 -122t288 122t103 327q0 199 -104.5 323.5t-286.5 124.5t-286.5 -124.5t-104.5 -323.5z" />
<glyph unicode="p" horiz-adv-x="1280" d="M162 -369v1444h147q0 -125 -2 -176q60 94 159.5 149.5t229.5 55.5q223 0 357.5 -153.5t134.5 -405.5q0 -259 -140 -415.5t-360 -156.5q-129 0 -227 53.5t-158 141.5q6 -94 6 -231v-306h-147zM299 539q0 -208 94 -327.5t269 -119.5t270.5 120t95.5 327q0 201 -97 323.5 t-269 122.5q-174 0 -268.5 -122t-94.5 -324z" />
<glyph unicode="q" horiz-adv-x="1280" d="M92 532q0 259 139.5 415.5t360.5 156.5q132 0 229.5 -53.5t157.5 -141.5q-2 55 -2 166h141v-1444h-147v295q0 113 6 248q-59 -92 -161.5 -146.5t-231.5 -54.5q-223 0 -357.5 153.5t-134.5 405.5zM252 539q0 -201 97.5 -324t268.5 -123q174 0 268.5 122.5t94.5 324.5 q0 208 -93.5 327t-269.5 119q-175 0 -270.5 -119.5t-95.5 -326.5z" />
<glyph unicode="r" horiz-adv-x="636" d="M160 1075h141v-170q28 85 103 140t167 55l33 -2v-142q-28 7 -59 7q-118 0 -177 -94t-59 -261v-608h-147v913q0 113 -2 162z" />
<glyph unicode="s" horiz-adv-x="1013" d="M74 326h141q63 -240 303 -240q119 0 190.5 55.5t71.5 141.5q0 34 -12 60t-29.5 43.5t-52.5 34t-64.5 27t-82.5 25.5l-127 37q-71 20 -119 40.5t-91.5 53.5t-65 81.5t-21.5 113.5q0 140 108.5 222.5t282.5 82.5q167 0 272 -77.5t129 -233.5h-139q-20 90 -85 144t-181 54 t-179 -47t-63 -123q0 -74 52 -112t180 -76l135 -41q156 -46 226.5 -108.5t70.5 -180.5q0 -153 -113 -241.5t-297 -88.5q-376 0 -440 353z" />
<glyph unicode="t" horiz-adv-x="600" d="M35 967v108h166v291h147v-291h205v-108h-205v-717q0 -80 38 -117t114 -37q16 0 32 2v-114q-28 -4 -55 -4q-137 0 -206.5 60t-69.5 208v719h-166z" />
<glyph unicode="u" horiz-adv-x="1181" d="M150 406v669h147v-622q0 -186 74.5 -275.5t206.5 -89.5q133 0 213.5 97.5t80.5 236.5v653h148v-911q0 -109 2 -164h-148v160q-47 -79 -131 -134t-213 -55q-184 0 -282 111t-98 324z" />
<glyph unicode="v" horiz-adv-x="1054" d="M41 1075h166l199 -563q94 -281 122 -375h4q24 72 70 202t70 202l194 534h154l-414 -1075h-164q-307 827 -401 1075z" />
<glyph unicode="w" horiz-adv-x="1634" d="M53 1075h156l160 -553q13 -47 52 -179t62 -220h4q19 83 58.5 226.5t58.5 217.5l133 508h187l118 -483q24 -101 62.5 -248t56.5 -219h4q23 82 74.5 251t71.5 240l137 459h141l-344 -1075h-184l-105 414q-120 492 -127 526h-6q-48 -199 -137 -534l-113 -406h-188 q-223 728 -332 1075z" />
<glyph unicode="x" horiz-adv-x="1021" d="M33 0q16 22 93 128t162 223.5t138 193.5l-377 530h178q24 -39 285 -424q30 44 91 133.5t110.5 162t85.5 128.5h168q-58 -82 -195.5 -270.5t-173.5 -239.5q245 -356 397 -565h-182q-43 66 -155.5 232t-151.5 225l-305 -457h-168z" />
<glyph unicode="y" horiz-adv-x="1062" d="M31 1075h166q65 -175 185 -487t157 -414h2q18 49 90.5 243.5t137.5 370.5t105 287h154q-55 -139 -175 -445t-214 -542.5t-184 -456.5h-146l154 363q-70 185 -228 574.5t-204 506.5z" />
<glyph unicode="z" horiz-adv-x="1021" d="M72 0v113l487 606q30 37 74.5 90.5t74 89.5t42.5 53q-74 -2 -332 -2h-322v125h848v-112l-485 -586q-64 -79 -211 -254q37 0 155 1t166 1h367v-125h-864z" />
<glyph unicode="{" horiz-adv-x="571" d="M80 586v59q75 21 102 64t27 159v336q0 79 7 124t29 79t62.5 46.5t108.5 12.5l57 -2v-102q-75 -3 -101 -32.5t-26 -125.5v-274q0 -89 -4 -135.5t-19.5 -83t-40.5 -55t-73 -38.5v-4q39 -16 61 -31.5t39 -35.5t24 -54.5t10 -76.5t3 -113v-278q0 -96 26 -125.5t101 -32.5 v-100q-22 -3 -57 -3q-54 0 -90.5 9t-60 26.5t-35.5 51t-16.5 73.5t-4.5 103v335q0 80 -13.5 124.5t-39 64.5t-76.5 35z" />
<glyph unicode="|" horiz-adv-x="534" d="M199 -127v1624h137v-1624h-137z" />
<glyph unicode="}" horiz-adv-x="571" d="M98 -133q75 3 101 32.5t26 125.5v278q0 71 3 113t10 76.5t24 54.5t39 35.5t61 31.5v4q-48 20 -73 38.5t-40.5 55t-19.5 83t-4 135.5v274q0 96 -26 125.5t-101 32.5v102q23 2 58 2q55 0 91 -9t59 -26.5t35 -51t16.5 -73t4.5 -102.5v-336q0 -116 27.5 -159t102.5 -64v-59 q-75 -21 -102.5 -64.5t-27.5 -159.5v-335q0 -63 -4.5 -103t-16.5 -73.5t-35 -51t-59.5 -26.5t-90.5 -9l-58 3v100z" />
<glyph unicode="~" d="M59 557q117 193 283 193q82 0 197 -56l106 -53l14 -7l15 -7.5t14.5 -6.5t16 -7t15 -6t16.5 -5.5t16 -4.5t17.5 -4t17 -2t18.5 -1q63 0 114 42.5t85 104.5l90 -57q-125 -207 -297 -207q-35 0 -76 11t-65 21.5t-70 31.5l-86 41q-112 55 -170 55q-114 0 -185 -137z" />
<glyph unicode="&#xa1;" horiz-adv-x="499" d="M172 860v215h156v-215h-156zM176 -178q0 146 4.5 291t13.5 331t11 246h90q2 -60 11 -246t13.5 -331t4.5 -291v-223h-148v223z" />
<glyph unicode="&#xa2;" d="M55 541q0 233 129.5 384.5t343.5 174.5v174h136v-174q178 -15 292.5 -116.5t147.5 -260.5h-148q-82 228 -292 256v-883q114 14 181.5 77.5t110.5 168.5h146q-44 -148 -155 -247t-283 -118v-145h-136v145q-217 19 -345 170.5t-128 393.5zM207 539q0 -184 85.5 -302 t235.5 -141v883q-150 -23 -235.5 -141t-85.5 -299z" />
<glyph unicode="&#xa3;" d="M92 698v115h168l-11 33l-11 33t-9.5 29t-9.5 31.5t-7 28t-6.5 31t-4 29t-3.5 33.5t-1 33q0 169 121.5 284t320.5 115q198 0 304 -102.5t108 -282.5h-142q-19 262 -272 262q-135 0 -212 -78.5t-77 -197.5q0 -23 2 -44.5t6.5 -44t8.5 -38t12.5 -39t12.5 -35t15 -38.5 t15 -36h352v-121h-309q63 -163 63 -276q0 -194 -164 -301q47 2 332 2h324v-123h-899v111q262 48 262 309q0 125 -72 278h-217z" />
<glyph unicode="&#xa4;" d="M72 336l100 100q-100 133 -100 299q0 173 102 303l-102 103l98 98l102 -102q133 100 301 100q161 0 299 -100l101 100l98 -98l-100 -101q104 -132 104 -303q0 -168 -100 -301l96 -96l-98 -98l-96 96q-131 -103 -304 -103q-164 0 -305 103l-98 -98zM182 735 q0 -161 115 -276t276 -115t276.5 115t115.5 276t-115.5 276t-276.5 115t-276 -115t-115 -276z" />
<glyph unicode="&#xa5;" d="M-16 1464h178q62 -115 208.5 -380.5t204.5 -372.5q82 151 222 396.5t198 356.5h170l-297 -512h217v-112h-280l-160 -277h440v-112h-440v-451h-151v451h-441v112h441l-158 277h-283v112h219z" />
<glyph unicode="&#xa6;" horiz-adv-x="436" d="M150 -127v621h137v-621h-137zM150 877v620h137v-620h-137z" />
<glyph unicode="&#xa7;" d="M125 129h141q62 -240 303 -240q119 0 190.5 52.5t71.5 140.5q0 26 -5.5 44.5t-23.5 45t-61 54.5t-110 59l-213 96q-50 23 -83.5 40.5t-75 47t-66 59.5t-41.5 74.5t-17 95.5q0 52 20.5 97t54 75.5t65 50t65.5 33.5q-69 38 -104 93.5t-35 138.5q0 138 109.5 219.5 t283.5 81.5q347 0 399 -311h-139q-25 99 -90 148.5t-176 49.5q-114 0 -177 -44t-63 -122q0 -38 12.5 -66t42 -50t57.5 -36.5t79 -35.5l192 -80q63 -26 110 -53t90 -64t66 -85.5t23 -106.5q0 -106 -53.5 -173t-153.5 -114q162 -93 162 -242q0 -153 -112.5 -239t-297.5 -86 q-178 0 -292.5 86.5t-147.5 265.5zM279 731q0 -74 45.5 -121t142.5 -92l235 -110q81 27 129 71.5t48 120.5q0 45 -17 79.5t-56 63t-80 49t-112 48.5l-147 59q-78 -5 -133 -50.5t-55 -117.5z" />
<glyph unicode="&#xa8;" horiz-adv-x="1005" d="M328 1262v163h161v-163h-161zM641 1262v163h160v-163h-160z" />
<glyph unicode="&#xa9;" horiz-adv-x="1742" d="M100 737q0 157 60.5 299.5t163 245.5t246 164t302.5 61q158 0 300.5 -61t245.5 -164t163.5 -245.5t60.5 -299.5q0 -159 -60.5 -302t-164 -246t-247 -163.5t-302.5 -60.5q-157 0 -299.5 61t-245 164t-163 246t-60.5 301zM193 737q0 -188 89 -346.5t245 -251t343 -92.5 q138 0 264 54t217 146t145 220t54 270q0 141 -54 268.5t-145 218.5t-216 145t-263 54q-141 0 -267 -53.5t-216.5 -145.5t-143 -219t-52.5 -268zM430 733q0 205 123 332t321 127q154 0 259 -77t149 -222h-113q-68 207 -295 207q-153 0 -241 -101t-88 -264q0 -164 88 -266 t241 -102q115 0 185 51.5t112 144.5h113q-51 -135 -157.5 -212t-258.5 -77q-195 0 -316.5 127t-121.5 332z" />
<glyph unicode="&#xaa;" horiz-adv-x="927" d="M106 578q0 56 26.5 99t76.5 71t107.5 45t134.5 30q126 20 217 29q-3 130 -53.5 190t-153.5 60q-193 0 -203 -176h-115q0 119 90 193.5t232 74.5q161 0 237 -81.5t76 -264.5q0 -32 -1 -65.5t-1 -37.5v-210q0 -102 15 -168h-107q-12 51 -10 129q-88 -146 -289 -146 q-124 0 -201.5 61.5t-77.5 166.5zM229 582q0 -70 51.5 -109t137.5 -39q120 0 186 74t66 217v41q-104 -11 -205 -29q-76 -15 -122.5 -31t-80 -47.5t-33.5 -76.5z" />
<glyph unicode="&#xab;" horiz-adv-x="970" d="M111 586l223 383h133l-203 -383l203 -385h-133zM498 586l223 383h129l-193 -383l193 -385h-129z" />
<glyph unicode="&#xac;" d="M47 825v117h1030v-661h-121v544h-909z" />
<glyph unicode="&#xad;" horiz-adv-x="835" d="M139 539v125h557v-125h-557z" />
<glyph unicode="&#xae;" horiz-adv-x="1150" d="M98 1024q0 130 63.5 239.5t174 173.5t242.5 64q198 0 337.5 -139.5t139.5 -337.5q0 -131 -64 -241t-174.5 -174t-241.5 -64q-198 0 -337.5 140t-139.5 339zM172 1024q0 -171 117.5 -291.5t285.5 -120.5t288 121t120 291q0 169 -119.5 289.5t-285.5 120.5 q-170 0 -288 -120.5t-118 -289.5zM410 752v538h155q104 0 144 -28q63 -42 63 -127q0 -64 -38 -102.5t-87 -51.5l139 -229h-88l-127 219h-92v-219h-69zM479 1036h86q58 0 97 25q32 22 32 74q0 58 -43 79q-39 17 -86 17h-86v-195z" />
<glyph unicode="&#xaf;" horiz-adv-x="876" d="M199 1290v92h499v-92h-499z" />
<glyph unicode="&#xb0;" horiz-adv-x="878" d="M98 1155q0 143 98.5 240.5t243.5 97.5q144 0 242 -97.5t98 -240.5t-97.5 -239.5t-242.5 -96.5t-243.5 97t-98.5 239zM201 1155q0 -98 70.5 -167.5t168.5 -69.5q99 0 168.5 67.5t69.5 169.5q0 99 -70.5 169.5t-167.5 70.5q-98 0 -168.5 -70.5t-70.5 -169.5z" />
<glyph unicode="&#xb1;" d="M119 627v116h391v385h121v-385h393v-116h-393v-385h-121v385h-391zM121 0v121h905v-121h-905z" />
<glyph unicode="&#xb2;" horiz-adv-x="851" d="M137 569v82q151 127 260 223q205 182 205 336q0 82 -46.5 133.5t-127.5 51.5q-88 0 -134.5 -55t-51.5 -148h-105q2 126 80 206.5t215 80.5q134 0 205.5 -72.5t71.5 -194.5q0 -55 -17.5 -107.5t-39.5 -90t-66.5 -85.5t-73 -73.5t-84.5 -73.5q-72 -60 -160 -120h441v-93 h-572z" />
<glyph unicode="&#xb3;" horiz-adv-x="802" d="M102 825h103q27 -180 194 -180q88 0 140.5 55t52.5 140q0 94 -60.5 138t-158.5 44h-41v78h18q100 0 151.5 36.5t51.5 120.5q0 69 -46 107.5t-108 38.5q-65 0 -110.5 -37t-52.5 -109h-99q8 104 78.5 167t185.5 63q118 0 186 -60.5t68 -156.5q0 -146 -143 -201 q84 -22 134 -78.5t50 -148.5q0 -122 -81 -199.5t-218 -77.5q-128 0 -203 66.5t-92 193.5z" />
<glyph unicode="&#xb4;" horiz-adv-x="874" d="M291 1221l237 243h209l-291 -243h-155z" />
<glyph unicode="&#xb5;" horiz-adv-x="1193" d="M162 -367v1442h147v-622q0 -186 74.5 -275.5t206.5 -89.5q133 0 214 97.5t81 236.5v653h147v-911q0 -109 2 -164h-147v160q-46 -86 -138.5 -136.5t-197.5 -50.5q-138 0 -242 82v-422h-147z" />
<glyph unicode="&#xb6;" horiz-adv-x="1157" d="M66 1171q0 152 116 236q52 35 111 46t149 11h580v-108h-109v-1587h-129v1587h-256v-1587h-129v1103q-139 0 -236 83t-97 216z" />
<glyph unicode="&#xb7;" horiz-adv-x="434" d="M139 535v227h156v-227h-156z" />
<glyph unicode="&#xb8;" horiz-adv-x="755" d="M254 -334l190 236h142l-156 -236h-176z" />
<glyph unicode="&#xb9;" horiz-adv-x="528" d="M72 1253v68q119 1 165 33t64 110h74v-882h-99v671h-204z" />
<glyph unicode="&#xba;" horiz-adv-x="1017" d="M98 768q0 192 111.5 309t298.5 117t299.5 -117.5t112.5 -308.5q0 -190 -111.5 -306t-304.5 -116q-188 0 -297 116t-109 306zM215 770q0 -151 77 -241.5t212 -90.5q138 0 215.5 90.5t77.5 241.5q0 148 -78.5 240t-214.5 92q-133 0 -211 -92.5t-78 -239.5z" />
<glyph unicode="&#xbb;" horiz-adv-x="970" d="M121 201l192 385l-192 383h129l223 -383l-223 -385h-129zM504 201l203 385l-203 383h133l223 -383l-223 -385h-133z" />
<glyph unicode="&#xbc;" horiz-adv-x="1525" d="M70 1253v68q119 1 165 33t64 110h74v-882h-99v671h-204zM358 0l560 1464h98l-563 -1464h-95zM784 193v79q352 511 424 621h119v-608h125v-92h-125v-193h-100v193h-443zM893 285h334v200q0 220 4 306h-2q-72 -119 -154 -238l-88 -131z" />
<glyph unicode="&#xbd;" horiz-adv-x="1597" d="M70 1253v68q119 1 165 33t64 110h74v-882h-99v671h-204zM358 0l560 1464h98l-563 -1464h-95zM926 0v82q151 127 260 223q205 182 205 336q0 82 -46.5 133t-127.5 51q-88 0 -135 -54.5t-52 -147.5h-104q2 126 80 206t215 80q134 0 205 -72t71 -194q0 -40 -9 -78 t-21.5 -68.5t-37 -65.5t-43.5 -58t-53.5 -56.5t-55 -51.5t-60.5 -52q-78 -66 -160 -121h440v-92h-571z" />
<glyph unicode="&#xbe;" horiz-adv-x="1724" d="M84 825h102q13 -89 63 -134.5t132 -45.5q88 0 140 55t52 140q0 94 -60.5 138t-158.5 44h-41v78h19q100 0 151.5 36.5t51.5 120.5q0 69 -46 107.5t-108 38.5q-65 0 -111 -37t-53 -109h-98q8 104 78.5 167t185.5 63q118 0 186 -60.5t68 -156.5q0 -146 -143 -201 q84 -22 134 -78.5t50 -148.5q0 -122 -81 -199.5t-218 -77.5q-128 0 -203 66.5t-92 193.5zM559 0l559 1464h99l-564 -1464h-94zM985 193v79q352 511 424 621h119v-608h125v-92h-125v-193h-101v193h-442zM1094 285h333v200q0 199 5 306h-2q-72 -119 -154 -238l-88 -131z" />
<glyph unicode="&#xbf;" horiz-adv-x="1001" d="M59 -49q0 63 18.5 120.5t53 107t67 85t78.5 76.5q50 44 75.5 70.5t49 64.5t33 82t10.5 107h134q-3 -135 -38 -213t-130 -162q-45 -41 -69 -66t-57.5 -69t-49 -93t-15.5 -106q0 -113 72 -178.5t207 -65.5q139 0 212 83t76 235h150q0 -207 -119 -327t-325 -120 q-200 0 -316.5 103t-116.5 266zM432 862v213h156v-213h-156z" />
<glyph unicode="&#xc0;" horiz-adv-x="1372" d="M2 0l600 1464h172l594 -1464h-160l-192 483h-678l-188 -483h-148zM373 1792h209l227 -233h-156zM385 602h584l-62 158q-23 61 -70 180.5t-84.5 217.5t-68.5 185h-4q-40 -102 -124 -313t-114 -289z" />
<glyph unicode="&#xc1;" horiz-adv-x="1372" d="M2 0l600 1464h172l594 -1464h-160l-192 483h-678l-188 -483h-148zM385 602h584l-62 158q-23 61 -70 180.5t-84.5 217.5t-68.5 185h-4q-40 -102 -124 -313t-114 -289zM588 1559l227 233h209l-281 -233h-155z" />
<glyph unicode="&#xc2;" horiz-adv-x="1372" d="M2 0l600 1464h172l594 -1464h-160l-192 483h-678l-188 -483h-148zM385 602h584l-62 158q-23 61 -70 180.5t-84.5 217.5t-68.5 185h-4q-40 -102 -124 -313t-114 -289zM410 1559q33 39 99 119t95 114h156q29 -34 95 -114t99 -119h-137l-135 137l-131 -137h-141z" />
<glyph unicode="&#xc3;" horiz-adv-x="1372" d="M2 0l600 1464h172l594 -1464h-160l-192 483h-678l-188 -483h-148zM385 602h584l-62 158q-23 61 -70 180.5t-84.5 217.5t-68.5 185h-4q-40 -102 -124 -313t-114 -289zM389 1567q6 93 47 142.5t111 49.5q26 0 50.5 -5t36.5 -9.5t53 -21.5q4 -1 7 -2.5t6 -2.5q5 -2 23 -9.5 t26 -10.5t22 -8t25 -7t21 -2q65 0 76 95h100q-6 -95 -48 -147t-116 -52q-54 0 -135 35q-101 43 -129 43q-30 0 -49 -23.5t-24 -64.5h-103z" />
<glyph unicode="&#xc4;" horiz-adv-x="1372" d="M2 0l600 1464h172l594 -1464h-160l-192 483h-678l-188 -483h-148zM385 602h584l-62 158q-23 61 -70 180.5t-84.5 217.5t-68.5 185h-4q-40 -102 -124 -313t-114 -289zM446 1569v164h162v-164h-162zM760 1569v164h160v-164h-160z" />
<glyph unicode="&#xc5;" horiz-adv-x="1372" d="M2 0l600 1464h172l594 -1464h-160l-192 483h-678l-188 -483h-148zM385 602h584l-62 158q-23 61 -70 180.5t-84.5 217.5t-68.5 185h-4q-40 -102 -124 -313t-114 -289zM512 1714q0 72 50.5 122t123.5 50t123.5 -50t50.5 -122q0 -75 -50.5 -125.5t-125.5 -50.5 q-73 0 -122.5 50.5t-49.5 125.5zM584 1714q0 -44 28.5 -75t71.5 -31q44 0 73 30t29 76q0 42 -29.5 72.5t-72.5 30.5q-42 0 -71 -30.5t-29 -72.5z" />
<glyph unicode="&#xc6;" horiz-adv-x="1796" d="M-18 0l796 1464h910v-129h-701l12 -520h639v-129h-634l12 -559h686v-127h-832l-8 428h-502l-231 -428h-147zM428 553h426l-6 385q-2 94 -2 403h-10q-84 -171 -162 -323z" />
<glyph unicode="&#xc7;" horiz-adv-x="1564" d="M96 731q0 222 91.5 395.5t258.5 270t381 96.5q254 0 424.5 -121t241.5 -348h-154q-27 72 -69.5 132t-104 109.5t-148.5 77t-192 27.5q-262 0 -415.5 -175.5t-153.5 -461.5q0 -284 154 -461.5t417 -177.5q353 0 508 330h154q-78 -212 -251.5 -332.5t-420.5 -120.5 q-321 0 -521 210.5t-200 549.5zM580 -334l190 236h148l-156 -236h-182z" />
<glyph unicode="&#xc8;" horiz-adv-x="1204" d="M190 0v1464h906v-129h-754v-520h705v-129h-705v-557h768v-129h-920zM354 1792h209l228 -233h-156z" />
<glyph unicode="&#xc9;" horiz-adv-x="1204" d="M190 0v1464h906v-129h-754v-520h705v-129h-705v-557h768v-129h-920zM514 1559l227 233h209l-280 -233h-156z" />
<glyph unicode="&#xca;" horiz-adv-x="1204" d="M190 0v1464h906v-129h-754v-520h705v-129h-705v-557h768v-129h-920zM377 1559q33 39 99 119t95 114h156q28 -33 95 -113.5t100 -119.5h-138l-135 137l-131 -137h-141z" />
<glyph unicode="&#xcb;" horiz-adv-x="1204" d="M190 0v1464h906v-129h-754v-520h705v-129h-705v-557h768v-129h-920zM410 1569v164h161v-164h-161zM723 1569v164h160v-164h-160z" />
<glyph unicode="&#xcc;" horiz-adv-x="530" d="M-57 1792h209l227 -233h-156zM190 0v1464h150v-1464h-150z" />
<glyph unicode="&#xcd;" horiz-adv-x="530" d="M166 1559l227 233h209l-280 -233h-156zM190 0v1464h150v-1464h-150z" />
<glyph unicode="&#xce;" horiz-adv-x="530" d="M-6 1559q33 39 99 119t95 114h156q28 -33 95 -113.5t100 -119.5h-138l-135 137l-131 -137h-141zM190 0v1464h150v-1464h-150z" />
<glyph unicode="&#xcf;" horiz-adv-x="530" d="M31 1569v164h162v-164h-162zM190 0v1464h150v-1464h-150zM344 1569v164h160v-164h-160z" />
<glyph unicode="&#xd0;" horiz-adv-x="1462" d="M23 680v125h170v659h360q145 0 245.5 -19.5t190.5 -60.5q182 -84 277.5 -250t95.5 -405q0 -181 -62.5 -329.5t-185.5 -245.5q-98 -77 -224 -115.5t-312 -38.5h-385v680h-170zM344 125h197q187 0 317 43q169 57 253.5 193.5t84.5 369.5q0 384 -268 529q-143 79 -369 79 h-215v-534h322v-125h-322v-555z" />
<glyph unicode="&#xd1;" horiz-adv-x="1501" d="M190 0v1464h252l496 -899q49 -90 126 -234t97 -181h4q0 35 -2 214t-2 257v843h150v-1464h-232l-491 887q-19 35 -65.5 119t-73.5 133.5t-59 111t-48 97.5h-4q0 -34 1 -290t1 -327v-731h-150zM469 1567q6 93 47 142.5t111 49.5q26 0 50.5 -5t36.5 -9.5t53 -21.5 q4 -1 7 -2.5t6 -2.5q5 -2 23 -9.5t26 -10.5t22 -8t25 -7t21 -2q65 0 76 95h100q-6 -95 -48 -147t-116 -52q-54 0 -135 35q-101 43 -129 43q-30 0 -49.5 -24t-24.5 -64h-102z" />
<glyph unicode="&#xd2;" horiz-adv-x="1658" d="M96 731q0 341 202 551.5t529 210.5q329 0 531.5 -210t202.5 -552q0 -344 -199.5 -552t-532.5 -208q-331 0 -532 208.5t-201 551.5zM256 733q0 -287 154.5 -463t416.5 -176q258 0 413 176t155 463q0 290 -153.5 463.5t-416.5 173.5q-262 0 -415.5 -174.5t-153.5 -462.5z M543 1792h209l227 -233h-156z" />
<glyph unicode="&#xd3;" horiz-adv-x="1658" d="M96 731q0 341 202 551.5t529 210.5q329 0 531.5 -210t202.5 -552q0 -344 -199.5 -552t-532.5 -208q-331 0 -532 208.5t-201 551.5zM256 733q0 -287 154.5 -463t416.5 -176q258 0 413 176t155 463q0 290 -153.5 463.5t-416.5 173.5q-262 0 -415.5 -174.5t-153.5 -462.5z M721 1559l227 233h209l-280 -233h-156z" />
<glyph unicode="&#xd4;" horiz-adv-x="1658" d="M96 731q0 341 202 551.5t529 210.5q329 0 531.5 -210t202.5 -552q0 -344 -199.5 -552t-532.5 -208q-331 0 -532 208.5t-201 551.5zM256 733q0 -287 154.5 -463t416.5 -176q258 0 413 176t155 463q0 290 -153.5 463.5t-416.5 173.5q-262 0 -415.5 -174.5t-153.5 -462.5z M553 1559q33 39 100 119.5t95 113.5h155q28 -33 95 -113.5t100 -119.5h-137l-136 137l-131 -137h-141z" />
<glyph unicode="&#xd5;" horiz-adv-x="1658" d="M96 731q0 341 202 551.5t529 210.5q329 0 531.5 -210t202.5 -552q0 -344 -199.5 -552t-532.5 -208q-331 0 -532 208.5t-201 551.5zM256 733q0 -287 154.5 -463t416.5 -176q258 0 413 176t155 463q0 290 -153.5 463.5t-416.5 173.5q-262 0 -415.5 -174.5t-153.5 -462.5z M545 1567q6 93 47 142.5t110 49.5q27 0 53 -5.5t41.5 -11.5t59.5 -24q5 -2 23 -9.5t26 -10.5t22 -8t25 -7t21 -2q65 0 76 95h100q-6 -95 -48 -147t-116 -52q-54 0 -135 35q-101 43 -129 43q-30 0 -49.5 -24t-24.5 -64h-102z" />
<glyph unicode="&#xd6;" horiz-adv-x="1658" d="M96 731q0 341 202 551.5t529 210.5q329 0 531.5 -210t202.5 -552q0 -344 -199.5 -552t-532.5 -208q-331 0 -532 208.5t-201 551.5zM256 733q0 -287 154.5 -463t416.5 -176q258 0 413 176t155 463q0 290 -153.5 463.5t-416.5 173.5q-262 0 -415.5 -174.5t-153.5 -462.5z M598 1569v164h162v-164h-162zM911 1569v164h160v-164h-160z" />
<glyph unicode="&#xd7;" d="M143 315l342 342l-342 342l84 86l342 -342l344 342l86 -84l-344 -344l344 -344l-86 -84l-344 342l-342 -342z" />
<glyph unicode="&#xd8;" horiz-adv-x="1658" d="M96 731q0 341 202 551.5t529 210.5q179 0 326 -66l98 175l121 -70l-100 -174q137 -100 213 -262t76 -365q0 -344 -199.5 -552t-532.5 -208q-167 0 -311 58l-104 -183l-121 64l104 184q-144 99 -222.5 263t-78.5 374zM256 733q0 -166 54.5 -299.5t154.5 -218.5l622 1098 q-117 57 -262 57q-262 0 -415.5 -174.5t-153.5 -462.5zM582 143q107 -49 245 -49q258 0 413 176t155 463q0 160 -50 288t-143 214z" />
<glyph unicode="&#xd9;" horiz-adv-x="1398" d="M176 553v911h150v-880q0 -114 9.5 -186.5t39.5 -129.5q44 -81 128.5 -128.5t196.5 -47.5q113 0 197.5 47.5t126.5 128.5q30 57 39.5 129.5t9.5 186.5v880h150v-911q0 -133 -21 -226.5t-74 -168.5q-64 -88 -179.5 -137.5t-250.5 -49.5q-137 0 -250.5 49t-177.5 138 q-53 74 -73.5 167.5t-20.5 227.5zM416 1792h209l227 -233h-156z" />
<glyph unicode="&#xda;" horiz-adv-x="1398" d="M176 553v911h150v-880q0 -114 9.5 -186.5t39.5 -129.5q44 -81 128.5 -128.5t196.5 -47.5q113 0 197.5 47.5t126.5 128.5q30 57 39.5 129.5t9.5 186.5v880h150v-911q0 -133 -21 -226.5t-74 -168.5q-64 -88 -179.5 -137.5t-250.5 -49.5q-137 0 -250.5 49t-177.5 138 q-53 74 -73.5 167.5t-20.5 227.5zM551 1559l227 233h209l-280 -233h-156z" />
<glyph unicode="&#xdb;" horiz-adv-x="1398" d="M176 553v911h150v-880q0 -114 9.5 -186.5t39.5 -129.5q44 -81 128.5 -128.5t196.5 -47.5q113 0 197.5 47.5t126.5 128.5q30 57 39.5 129.5t9.5 186.5v880h150v-911q0 -133 -21 -226.5t-74 -168.5q-64 -88 -179.5 -137.5t-250.5 -49.5q-137 0 -250.5 49t-177.5 138 q-53 74 -73.5 167.5t-20.5 227.5zM420 1559q33 39 99 119t95 114h156q28 -33 95 -113.5t100 -119.5h-138l-135 137l-131 -137h-141z" />
<glyph unicode="&#xdc;" horiz-adv-x="1398" d="M176 553v911h150v-880q0 -114 9.5 -186.5t39.5 -129.5q44 -81 128.5 -128.5t196.5 -47.5q113 0 197.5 47.5t126.5 128.5q30 57 39.5 129.5t9.5 186.5v880h150v-911q0 -133 -21 -226.5t-74 -168.5q-64 -88 -179.5 -137.5t-250.5 -49.5q-137 0 -250.5 49t-177.5 138 q-53 74 -73.5 167.5t-20.5 227.5zM465 1569v164h162v-164h-162zM778 1569v164h160v-164h-160z" />
<glyph unicode="&#xdd;" horiz-adv-x="1212" d="M18 1464h179q62 -115 208.5 -380.5t204.5 -372.5q82 151 222 396.5t198 356.5h170l-520 -901v-563h-152v563zM469 1559l227 233h209l-280 -233h-156z" />
<glyph unicode="&#xde;" horiz-adv-x="1167" d="M190 0v1464h152v-247h246q206 0 323 -60q195 -98 195 -358q0 -217 -150 -326q-129 -100 -381 -100h-233v-373h-152zM342 498h242q164 0 262 73t98 228q0 149 -92.5 221t-280.5 72h-229v-594z" />
<glyph unicode="&#xdf;" horiz-adv-x="1159" d="M162 0v993q0 144 24 232.5t86 146.5q112 109 316 109q191 0 296 -87t105 -235q0 -122 -71 -206.5t-183 -110.5q68 -17 125 -46.5t108 -76.5t80 -118t29 -159q0 -214 -131.5 -330t-355.5 -116q-43 0 -66 2v108h33q363 0 363 328q0 173 -105 255.5t-283 82.5h-8v105 q310 17 310 253q0 116 -66 177t-193 61q-145 0 -210 -90q-54 -76 -54 -231v-1047h-149z" />
<glyph unicode="&#xe0;" horiz-adv-x="1118" d="M82 283q0 61 23 110t61.5 82.5t99 59.5t125 42t148.5 29q195 30 292 39q0 184 -66 263t-212 79q-141 0 -205 -62.5t-72 -174.5h-145q0 158 119 256t309 98q213 0 313.5 -109t100.5 -354q0 -65 -1 -113.5t-1 -50.5v-254q0 -141 20 -223h-137q-16 74 -14 180 q-112 -203 -389 -203q-164 0 -266.5 82t-102.5 224zM240 287q0 -97 68.5 -150t185.5 -53q163 0 251.5 100.5t88.5 292.5q0 40 2 60q-163 -18 -277 -39q-66 -12 -110 -23t-87 -28t-67.5 -38t-39.5 -51.5t-15 -70.5zM266 1464h209l238 -243h-156z" />
<glyph unicode="&#xe1;" horiz-adv-x="1118" d="M82 283q0 61 23 110t61.5 82.5t99 59.5t125 42t148.5 29q195 30 292 39q0 184 -66 263t-212 79q-141 0 -205 -62.5t-72 -174.5h-145q0 158 119 256t309 98q213 0 313.5 -109t100.5 -354q0 -65 -1 -113.5t-1 -50.5v-254q0 -141 20 -223h-137q-16 74 -14 180 q-112 -203 -389 -203q-164 0 -266.5 82t-102.5 224zM240 287q0 -97 68.5 -150t185.5 -53q163 0 251.5 100.5t88.5 292.5q0 40 2 60q-163 -18 -277 -39q-66 -12 -110 -23t-87 -28t-67.5 -38t-39.5 -51.5t-15 -70.5zM412 1221l237 243h209l-291 -243h-155z" />
<glyph unicode="&#xe2;" horiz-adv-x="1118" d="M82 283q0 61 23 110t61.5 82.5t99 59.5t125 42t148.5 29q195 30 292 39q0 184 -66 263t-212 79q-141 0 -205 -62.5t-72 -174.5h-145q0 158 119 256t309 98q213 0 313.5 -109t100.5 -354q0 -65 -1 -113.5t-1 -50.5v-254q0 -141 20 -223h-137q-16 74 -14 180 q-112 -203 -389 -203q-164 0 -266.5 82t-102.5 224zM240 287q0 -97 68.5 -150t185.5 -53q163 0 251.5 100.5t88.5 292.5q0 40 2 60q-163 -18 -277 -39q-66 -12 -110 -23t-87 -28t-67.5 -38t-39.5 -51.5t-15 -70.5zM281 1221q33 38 102 123t98 120h160q29 -34 98.5 -119.5 t102.5 -123.5h-140l-141 147l-137 -147h-143z" />
<glyph unicode="&#xe3;" horiz-adv-x="1118" d="M82 283q0 61 23 110t61.5 82.5t99 59.5t125 42t148.5 29q195 30 292 39q0 184 -66 263t-212 79q-141 0 -205 -62.5t-72 -174.5h-145q0 158 119 256t309 98q213 0 313.5 -109t100.5 -354q0 -65 -1 -113.5t-1 -50.5v-254q0 -141 20 -223h-137q-16 74 -14 180 q-112 -203 -389 -203q-164 0 -266.5 82t-102.5 224zM240 287q0 -97 68.5 -150t185.5 -53q163 0 251.5 100.5t88.5 292.5q0 40 2 60q-163 -18 -277 -39q-66 -12 -110 -23t-87 -28t-67.5 -38t-39.5 -51.5t-15 -70.5zM260 1257q6 93 47.5 143t110.5 50q26 0 50.5 -5t36.5 -9.5 t53 -21.5q4 -1 7 -2.5t6 -2.5q5 -2 23 -9.5t26 -10.5t22 -8t25 -7t21 -2q65 0 76 94h100q-6 -95 -48 -146.5t-116 -51.5q-54 0 -135 35q-101 43 -129 43q-30 0 -49.5 -24t-24.5 -65h-102z" />
<glyph unicode="&#xe4;" horiz-adv-x="1118" d="M82 283q0 61 23 110t61.5 82.5t99 59.5t125 42t148.5 29q195 30 292 39q0 184 -66 263t-212 79q-141 0 -205 -62.5t-72 -174.5h-145q0 158 119 256t309 98q213 0 313.5 -109t100.5 -354q0 -65 -1 -113.5t-1 -50.5v-254q0 -141 20 -223h-137q-16 74 -14 180 q-112 -203 -389 -203q-164 0 -266.5 82t-102.5 224zM240 287q0 -97 68.5 -150t185.5 -53q163 0 251.5 100.5t88.5 292.5q0 40 2 60q-163 -18 -277 -39q-66 -12 -110 -23t-87 -28t-67.5 -38t-39.5 -51.5t-15 -70.5zM326 1262v163h161v-163h-161zM639 1262v163h160v-163h-160z " />
<glyph unicode="&#xe5;" horiz-adv-x="1118" d="M82 283q0 61 23 110t61.5 82.5t99 59.5t125 42t148.5 29q195 30 292 39q0 184 -66 263t-212 79q-141 0 -205 -62.5t-72 -174.5h-145q0 158 119 256t309 98q213 0 313.5 -109t100.5 -354q0 -65 -1 -113.5t-1 -50.5v-254q0 -141 20 -223h-137q-16 74 -14 180 q-112 -203 -389 -203q-164 0 -266.5 82t-102.5 224zM240 287q0 -97 68.5 -150t185.5 -53q163 0 251.5 100.5t88.5 292.5q0 40 2 60q-163 -18 -277 -39q-66 -12 -110 -23t-87 -28t-67.5 -38t-39.5 -51.5t-15 -70.5zM387 1386q0 72 50.5 122.5t123.5 50.5t123.5 -50.5 t50.5 -122.5q0 -75 -50.5 -125.5t-125.5 -50.5q-73 0 -122.5 50.5t-49.5 125.5zM459 1386q0 -44 28.5 -75t71.5 -31q44 0 73.5 30t29.5 76q0 42 -29.5 72.5t-73.5 30.5q-42 0 -71 -30.5t-29 -72.5z" />
<glyph unicode="&#xe6;" horiz-adv-x="1937" d="M82 283q0 61 23 110t61.5 82.5t99 59.5t125 42t148.5 29q195 30 292 39q0 184 -66 263t-212 79q-141 0 -205 -62.5t-72 -174.5h-145q0 158 119 256t309 98q143 0 234 -49.5t135 -155.5q69 98 177.5 151.5t248.5 53.5q104 0 189.5 -31t143 -83t97 -122t57 -146.5 t17.5 -158.5l-3 -51h-890q6 -200 107.5 -309t277.5 -109q237 0 344 213h143q-50 -148 -179 -241t-312 -93q-158 0 -273 63.5t-180 182.5q-137 -242 -442 -242q-164 0 -266.5 82t-102.5 224zM240 287q0 -97 68.5 -150t185.5 -53q163 0 251.5 100.5t88.5 292.5q0 40 2 60 q-163 -18 -277 -39q-66 -12 -110 -23t-87 -28t-67.5 -38t-39.5 -51.5t-15 -70.5zM971 629h731q-13 164 -99.5 261t-252.5 97q-167 0 -263 -97t-116 -261z" />
<glyph unicode="&#xe7;" horiz-adv-x="1218" d="M90 541q0 253 152 408t393 155q204 0 336 -104t168 -277h-148q-91 262 -362 262q-178 0 -282.5 -122.5t-104.5 -323.5q0 -204 105 -325.5t282 -121.5q77 0 137.5 18.5t102.5 54.5t70.5 78t51.5 99h146q-47 -164 -178 -266.5t-336 -102.5q-242 0 -387.5 155t-145.5 413z M393 -334l191 236h141l-156 -236h-176z" />
<glyph unicode="&#xe8;" horiz-adv-x="1212" d="M92 539q0 255 146 410t391 155q104 0 189.5 -31t143 -83t97 -122t57 -146.5t17.5 -158.5l-3 -45h-890q6 -205 107 -314.5t278 -109.5q237 0 344 213h143q-50 -148 -179 -241t-312 -93q-246 0 -387.5 154t-141.5 412zM246 633h731q-13 160 -99.5 258t-252.5 98 q-167 0 -263 -97.5t-116 -258.5zM307 1464h209l238 -243h-156z" />
<glyph unicode="&#xe9;" horiz-adv-x="1212" d="M92 539q0 255 146 410t391 155q104 0 189.5 -31t143 -83t97 -122t57 -146.5t17.5 -158.5l-3 -45h-890q6 -205 107 -314.5t278 -109.5q237 0 344 213h143q-50 -148 -179 -241t-312 -93q-246 0 -387.5 154t-141.5 412zM246 633h731q-13 160 -99.5 258t-252.5 98 q-167 0 -263 -97.5t-116 -258.5zM498 1221l237 243h209l-291 -243h-155z" />
<glyph unicode="&#xea;" horiz-adv-x="1212" d="M92 539q0 255 146 410t391 155q104 0 189.5 -31t143 -83t97 -122t57 -146.5t17.5 -158.5l-3 -45h-890q6 -205 107 -314.5t278 -109.5q237 0 344 213h143q-50 -148 -179 -241t-312 -93q-246 0 -387.5 154t-141.5 412zM246 633h731q-13 160 -99.5 258t-252.5 98 q-167 0 -263 -97.5t-116 -258.5zM344 1221q33 38 102.5 123.5t98.5 119.5h160q29 -35 98 -120t102 -123h-139l-141 147l-138 -147h-143z" />
<glyph unicode="&#xeb;" horiz-adv-x="1212" d="M92 539q0 255 146 410t391 155q104 0 189.5 -31t143 -83t97 -122t57 -146.5t17.5 -158.5l-3 -45h-890q6 -205 107 -314.5t278 -109.5q237 0 344 213h143q-50 -148 -179 -241t-312 -93q-246 0 -387.5 154t-141.5 412zM246 633h731q-13 160 -99.5 258t-252.5 98 q-167 0 -263 -97.5t-116 -258.5zM375 1262v163h162v-163h-162zM688 1262v163h160v-163h-160z" />
<glyph unicode="&#xec;" horiz-adv-x="471" d="M-74 1464h209l238 -243h-156zM162 0v1075h147v-1075h-147z" />
<glyph unicode="&#xed;" horiz-adv-x="471" d="M154 1221l237 243h209l-291 -243h-155zM162 0v1075h147v-1075h-147z" />
<glyph unicode="&#xee;" horiz-adv-x="471" d="M-33 1221q33 38 102.5 123.5t98.5 119.5h160q29 -35 98 -120t102 -123h-139l-141 147l-137 -147h-144zM162 0v1075h147v-1075h-147z" />
<glyph unicode="&#xef;" horiz-adv-x="471" d="M6 1262v163h162v-163h-162zM162 0v1075h147v-1075h-147zM319 1262v163h160v-163h-160z" />
<glyph unicode="&#xf0;" horiz-adv-x="1275" d="M92 532q0 130 40 237t109 178t162.5 110t200.5 39q81 0 150.5 -21t102.5 -41.5t71 -52.5l6 6q-115 166 -303 297l-254 -115l-78 72l238 105q-82 52 -218 118h256q36 -20 97 -59l188 84l72 -70l-172 -78q199 -152 309.5 -346t110.5 -415q0 -274 -143.5 -440.5 t-405.5 -166.5q-253 0 -396 151t-143 408zM244 539q0 -205 103 -327t288 -122t288 122t103 327q0 199 -104.5 323.5t-286.5 124.5t-286.5 -124.5t-104.5 -323.5z" />
<glyph unicode="&#xf1;" horiz-adv-x="1189" d="M160 1075h147v-160q112 189 350 189q187 0 285 -109.5t98 -322.5v-672h-147v623q0 185 -77 274.5t-208 89.5q-134 0 -216.5 -98t-82.5 -236v-653h-147v911q0 109 -2 164zM336 1255q6 93 47.5 143t110.5 50q26 0 50.5 -5t36.5 -9.5t53 -21.5q4 -1 7 -2.5t6 -2.5 q5 -2 23 -9.5t26 -10.5t22 -8t25 -7t21 -2q65 0 76 94h100q-6 -95 -48 -146.5t-116 -51.5q-56 0 -135 34q-101 43 -129 43q-30 0 -49.5 -24t-24.5 -64h-102z" />
<glyph unicode="&#xf2;" horiz-adv-x="1273" d="M90 537q0 253 149.5 410t397.5 157t397.5 -157t149.5 -410q0 -251 -149 -407.5t-402 -156.5q-251 0 -397 156t-146 408zM242 539q0 -205 103 -327t288 -122t288 122t103 327q0 199 -104.5 323.5t-286.5 124.5t-286.5 -124.5t-104.5 -323.5zM362 1464h209l238 -243h-156z " />
<glyph unicode="&#xf3;" horiz-adv-x="1273" d="M90 537q0 253 149.5 410t397.5 157t397.5 -157t149.5 -410q0 -251 -149 -407.5t-402 -156.5q-251 0 -397 156t-146 408zM242 539q0 -205 103 -327t288 -122t288 122t103 327q0 199 -104.5 323.5t-286.5 124.5t-286.5 -124.5t-104.5 -323.5zM516 1221l238 243h209 l-291 -243h-156z" />
<glyph unicode="&#xf4;" horiz-adv-x="1273" d="M90 537q0 253 149.5 410t397.5 157t397.5 -157t149.5 -410q0 -251 -149 -407.5t-402 -156.5q-251 0 -397 156t-146 408zM242 539q0 -205 103 -327t288 -122t288 122t103 327q0 199 -104.5 323.5t-286.5 124.5t-286.5 -124.5t-104.5 -323.5zM365 1221q33 38 102 123 t98 120h160q29 -34 98.5 -119.5t102.5 -123.5h-140l-141 147l-137 -147h-143z" />
<glyph unicode="&#xf5;" horiz-adv-x="1273" d="M90 537q0 253 149.5 410t397.5 157t397.5 -157t149.5 -410q0 -251 -149 -407.5t-402 -156.5q-251 0 -397 156t-146 408zM242 539q0 -205 103 -327t288 -122t288 122t103 327q0 199 -104.5 323.5t-286.5 124.5t-286.5 -124.5t-104.5 -323.5zM344 1255q6 93 47.5 143 t110.5 50q26 0 50.5 -5t36.5 -9.5t53 -21.5q4 -1 7 -2.5t6 -2.5q5 -2 23 -9.5t26 -10.5t22 -8t25 -7t21 -2q65 0 76 94h100q-6 -95 -48 -146.5t-116 -51.5q-56 0 -135 34q-101 43 -129 43q-30 0 -49.5 -24t-24.5 -64h-102z" />
<glyph unicode="&#xf6;" horiz-adv-x="1273" d="M90 537q0 253 149.5 410t397.5 157t397.5 -157t149.5 -410q0 -251 -149 -407.5t-402 -156.5q-251 0 -397 156t-146 408zM242 539q0 -205 103 -327t288 -122t288 122t103 327q0 199 -104.5 323.5t-286.5 124.5t-286.5 -124.5t-104.5 -323.5zM403 1262v163h162v-163h-162z M717 1262v163h160v-163h-160z" />
<glyph unicode="&#xf7;" d="M121 600v121h905v-121h-905zM489 195v227h156v-227h-156zM489 897v227h156v-227h-156z" />
<glyph unicode="&#xf8;" horiz-adv-x="1273" d="M90 537q0 253 149.5 410t397.5 157q114 0 217 -39l78 135l112 -63l-75 -133q102 -74 158.5 -195t56.5 -272q0 -251 -149 -407.5t-402 -156.5q-119 0 -227 41l-89 -153l-110 63l86 154q-98 74 -150.5 192t-52.5 267zM242 539q0 -226 118 -344l433 759q-78 33 -160 33 q-182 0 -286.5 -124.5t-104.5 -323.5zM467 123q78 -33 166 -33q185 0 288 122t103 327q0 219 -125 344z" />
<glyph unicode="&#xf9;" horiz-adv-x="1181" d="M150 406v669h147v-622q0 -186 74.5 -275.5t206.5 -89.5q133 0 213.5 97.5t80.5 236.5v653h148v-911q0 -109 2 -164h-148v160q-47 -79 -131 -134t-213 -55q-184 0 -282 111t-98 324zM303 1464h209l238 -243h-156z" />
<glyph unicode="&#xfa;" horiz-adv-x="1181" d="M150 406v669h147v-622q0 -186 74.5 -275.5t206.5 -89.5q133 0 213.5 97.5t80.5 236.5v653h148v-911q0 -109 2 -164h-148v160q-47 -79 -131 -134t-213 -55q-184 0 -282 111t-98 324zM446 1221l238 243h209l-291 -243h-156z" />
<glyph unicode="&#xfb;" horiz-adv-x="1181" d="M150 406v669h147v-622q0 -186 74.5 -275.5t206.5 -89.5q133 0 213.5 97.5t80.5 236.5v653h148v-911q0 -109 2 -164h-148v160q-47 -79 -131 -134t-213 -55q-184 0 -282 111t-98 324zM324 1221q33 38 102 123t98 120h160q29 -34 98.5 -119.5t102.5 -123.5h-140l-141 147 l-137 -147h-143z" />
<glyph unicode="&#xfc;" horiz-adv-x="1181" d="M150 406v669h147v-622q0 -186 74.5 -275.5t206.5 -89.5q133 0 213.5 97.5t80.5 236.5v653h148v-911q0 -109 2 -164h-148v160q-47 -79 -131 -134t-213 -55q-184 0 -282 111t-98 324zM367 1262v163h161v-163h-161zM680 1262v163h160v-163h-160z" />
<glyph unicode="&#xfd;" horiz-adv-x="1062" d="M31 1075h166q65 -175 185 -487t157 -414h2q18 49 90.5 243.5t137.5 370.5t105 287h154q-55 -139 -175 -445t-214 -542.5t-184 -456.5h-146l154 363q-70 185 -228 574.5t-204 506.5zM391 1221l238 243h209l-291 -243h-156z" />
<glyph unicode="&#xfe;" horiz-adv-x="1280" d="M162 -369v1833h147v-305q0 -74 -0.5 -131.5t-1 -88.5t-0.5 -40q60 94 159.5 149.5t229.5 55.5q223 0 357.5 -153.5t134.5 -405.5q0 -259 -140 -415.5t-360 -156.5q-129 0 -227 53.5t-158 141.5q6 -94 6 -231v-306h-147zM299 539q0 -208 94 -327.5t269 -119.5t270.5 120 t95.5 327q0 201 -97 323.5t-269 122.5q-174 0 -268.5 -122t-94.5 -324z" />
<glyph unicode="&#xff;" horiz-adv-x="1062" d="M31 1075h166q65 -175 185 -487t157 -414h2q18 49 90.5 243.5t137.5 370.5t105 287h154q-55 -139 -175 -445t-214 -542.5t-184 -456.5h-146l154 363q-70 185 -228 574.5t-204 506.5zM311 1262v163h162v-163h-162zM625 1262v163h159v-163h-159z" />
<glyph unicode="&#x152;" horiz-adv-x="2396" d="M96 731q0 341 202 551.5t529 210.5q357 0 555 -246v217h906v-129h-754v-520h704v-129h-704v-557h768v-129h-920v215q-195 -244 -553 -244q-331 0 -532 208.5t-201 551.5zM256 733q0 -287 154.5 -463t416.5 -176q258 0 413 176t155 463q0 290 -153.5 463.5t-416.5 173.5 q-262 0 -415.5 -174.5t-153.5 -462.5z" />
<glyph unicode="&#x153;" horiz-adv-x="2127" d="M92 537q0 254 147 410.5t394 156.5q156 0 273 -65.5t184 -184.5q67 119 183 184.5t271 65.5q104 0 189.5 -31t143 -83t97 -122t57 -146.5t17.5 -158.5l-2 -51h-891q6 -200 107.5 -309t277.5 -109q237 0 344 213h144q-49 -148 -178.5 -241t-313.5 -93q-156 0 -271 62.5 t-180 179.5q-67 -116 -183 -179t-273 -63q-250 0 -393.5 156t-143.5 408zM244 539q0 -205 100.5 -327t284.5 -122t284.5 122t100.5 327q0 200 -101.5 324t-283.5 124t-283.5 -124t-101.5 -324zM1161 629h731q-13 164 -99.5 261t-252.5 97q-167 0 -263 -97t-116 -261z" />
<glyph unicode="&#x178;" horiz-adv-x="1212" d="M18 1464h179q62 -115 208.5 -380.5t204.5 -372.5q82 151 222 396.5t198 356.5h170l-520 -901v-563h-152v563zM373 1569v164h162v-164h-162zM686 1569v164h160v-164h-160z" />
<glyph unicode="&#x2c6;" horiz-adv-x="1030" d="M246 1221q33 38 102 123t98 120h160q29 -34 98.5 -119.5t102.5 -123.5h-139l-142 147l-137 -147h-143z" />
<glyph unicode="&#x2dc;" horiz-adv-x="962" d="M334 1255q6 93 47.5 143t110.5 50q26 0 50.5 -5t36.5 -9.5t53 -21.5q4 -1 7 -2.5t6 -2.5q5 -2 23 -9.5t26 -10.5t22 -8t25 -7t21 -2q65 0 76 94h100q-6 -95 -48 -146.5t-116 -51.5q-56 0 -135 34q-101 43 -129 43q-30 0 -49.5 -24t-24.5 -64h-102z" />
<glyph unicode="&#x2000;" horiz-adv-x="943" />
<glyph unicode="&#x2001;" horiz-adv-x="1886" />
<glyph unicode="&#x2002;" horiz-adv-x="943" />
<glyph unicode="&#x2003;" horiz-adv-x="1886" />
<glyph unicode="&#x2004;" horiz-adv-x="628" />
<glyph unicode="&#x2005;" horiz-adv-x="471" />
<glyph unicode="&#x2006;" horiz-adv-x="314" />
<glyph unicode="&#x2007;" horiz-adv-x="314" />
<glyph unicode="&#x2008;" horiz-adv-x="235" />
<glyph unicode="&#x2009;" horiz-adv-x="377" />
<glyph unicode="&#x200a;" horiz-adv-x="104" />
<glyph unicode="&#x2010;" horiz-adv-x="835" d="M139 539v125h557v-125h-557z" />
<glyph unicode="&#x2011;" horiz-adv-x="835" d="M139 539v125h557v-125h-557z" />
<glyph unicode="&#x2012;" horiz-adv-x="835" d="M139 539v125h557v-125h-557z" />
<glyph unicode="&#x2013;" horiz-adv-x="1241" d="M133 559v121h975v-121h-975z" />
<glyph unicode="&#x2014;" horiz-adv-x="1988" d="M133 559v121h1722v-121h-1722z" />
<glyph unicode="&#x2018;" horiz-adv-x="483" d="M111 999l159 465h125l-131 -465h-153z" />
<glyph unicode="&#x2019;" horiz-adv-x="477" d="M115 995l131 469h153l-159 -469h-125z" />
<glyph unicode="&#x201a;" horiz-adv-x="475" d="M51 -248l133 475h154l-162 -475h-125z" />
<glyph unicode="&#x201c;" horiz-adv-x="808" d="M109 989l161 475h125l-133 -475h-153zM434 989l162 475h125l-133 -475h-154z" />
<glyph unicode="&#x201d;" horiz-adv-x="802" d="M113 989l133 475h153l-161 -475h-125zM438 989l133 475h154l-162 -475h-125z" />
<glyph unicode="&#x201e;" horiz-adv-x="800" d="M51 -248l133 475h154l-162 -475h-125zM377 -248l133 475h154l-162 -475h-125z" />
<glyph unicode="&#x2022;" horiz-adv-x="792" d="M172 684q0 94 65 157.5t160 63.5q93 0 158.5 -64t65.5 -157t-65.5 -158t-158.5 -65q-95 0 -160 64.5t-65 158.5z" />
<glyph unicode="&#x2026;" horiz-adv-x="1804" d="M139 0v227h156v-227h-156zM819 0v227h156v-227h-156zM1509 0v227h156v-227h-156z" />
<glyph unicode="&#x202f;" horiz-adv-x="377" />
<glyph unicode="&#x2039;" horiz-adv-x="583" d="M111 586l223 383h129l-193 -383l193 -385h-129z" />
<glyph unicode="&#x203a;" horiz-adv-x="583" d="M121 201l192 385l-192 383h129l223 -383l-223 -385h-129z" />
<glyph unicode="&#x205f;" horiz-adv-x="471" />
<glyph unicode="&#x20ac;" d="M4 530l35 117h106q-2 27 -2 82q0 67 2 100h-131l35 117h105q11 95 32 173t59 149t90.5 119.5t131 77t176.5 28.5q406 0 473 -469h-147q-30 165 -107.5 256.5t-218.5 91.5q-288 0 -336 -426h555l-35 -117h-528q-2 -33 -2 -98v-84h491l-34 -117h-449q22 -211 102 -326.5 t236 -115.5q265 0 326 348l149 2q-17 -110 -50 -192.5t-88.5 -146.5t-140 -97t-196.5 -33q-99 0 -177.5 27t-132.5 75t-92 119.5t-58.5 154t-30.5 185.5h-148z" />
<glyph unicode="&#x2122;" horiz-adv-x="1787" d="M115 1376v88h553v-88h-222v-762h-108v762h-223zM868 614v850h183q43 -135 119.5 -420.5t80.5 -300.5q14 47 92 331.5t109 389.5h176v-850h-106v390q0 56 1 188.5t1 171.5h-6q-136 -490 -220 -750h-106q-39 121 -111.5 383.5t-103.5 362.5h-6q2 -121 2 -463v-283h-105z " />
<glyph unicode="&#x25fc;" horiz-adv-x="1075" d="M0 0v1075h1075v-1075h-1075z" />
</font>
</defs>
</svg>
